<svg width="22" height="32" viewBox="0 0 22 32" fill="none" xmlns="http://www.w3.org/2000/svg">
<path d="M20.8163 29.9464H20.2534C20.2534 29.9404 20.2506 29.9344 20.2495 29.9288L20.2341 29.86C20.2242 29.8147 20.2135 29.7698 20.2025 29.7252C20.1978 29.7043 20.1926 29.6833 20.1875 29.6624C20.1729 29.6036 20.1575 29.5448 20.1417 29.4861L20.137 29.4693C20.1196 29.4056 20.1014 29.3423 20.0825 29.2791L20.0635 29.2181C20.0505 29.1747 20.0367 29.1317 20.0241 29.0886C20.0166 29.0651 20.0087 29.0419 20.0012 29.0187C19.9874 28.9771 19.9731 28.9356 19.9585 28.8944C19.951 28.8727 19.9431 28.8506 19.9356 28.8293C19.9172 28.7777 19.8983 28.7264 19.8788 28.6755C19.8745 28.6646 19.8709 28.6542 19.8666 28.6433C19.8437 28.5834 19.8196 28.5239 19.7951 28.4644C19.7864 28.4427 19.7773 28.4214 19.7683 28.4C19.7517 28.3626 19.7351 28.3215 19.7181 28.2825L19.6862 28.2103C19.6696 28.1729 19.6526 28.1355 19.6352 28.098C19.6246 28.0748 19.6135 28.0512 19.6025 28.028C19.5823 27.985 19.563 27.9423 19.5405 27.9C19.5322 27.884 19.5247 27.8675 19.5164 27.851C19.4884 27.7953 19.4596 27.7388 19.4304 27.6849L19.3909 27.6149L19.3352 27.5135L19.2918 27.4386C19.2736 27.4072 19.2555 27.3757 19.2369 27.3443C19.2223 27.3188 19.2073 27.2934 19.1923 27.2694C19.1718 27.2354 19.1529 27.2021 19.1304 27.1684L19.0735 27.0771C19.0467 27.0352 19.0198 26.9929 18.9922 26.9513C18.9748 26.9251 18.9575 26.8993 18.9397 26.8735C18.9219 26.8477 18.9026 26.8181 18.8836 26.7908C18.8647 26.7635 18.8442 26.7362 18.8268 26.7092C18.8094 26.6823 18.7905 26.6579 18.7719 26.6344C18.7534 26.6108 18.7324 26.5793 18.7123 26.552L18.6567 26.4772C18.6172 26.4274 18.5809 26.3776 18.5422 26.3275L18.4881 26.259C18.4652 26.2302 18.4415 26.2017 18.4182 26.1733L18.3661 26.1104C18.342 26.0816 18.3176 26.0532 18.2931 26.0243L18.2418 25.9652L18.1652 25.8784L18.1198 25.8282C18.0254 25.7246 17.9287 25.6224 17.8297 25.5229L17.7862 25.4791L17.6954 25.3904L17.6508 25.3477C17.6192 25.3174 17.5877 25.2875 17.5557 25.2579L17.5229 25.228C17.4112 25.125 17.2963 25.0247 17.1795 24.9286L17.1475 24.902C17.1115 24.872 17.0752 24.8425 17.0386 24.8133L17.0023 24.7841C16.9628 24.7542 16.9269 24.7246 16.8886 24.695L16.8692 24.6804C16.7401 24.5816 16.6079 24.4855 16.4745 24.393L16.4559 24.3799C16.4137 24.3511 16.3714 24.3227 16.3288 24.2946L16.3008 24.2762C16.2574 24.2474 16.2135 24.2194 16.1697 24.1913L16.1622 24.1868C16.017 24.0947 15.8689 24.0065 15.7181 23.9222L15.7122 23.9185C15.6645 23.8919 15.6167 23.8661 15.5689 23.8403L15.548 23.829C15.2938 23.6931 15.0327 23.5683 14.7648 23.4548L14.7482 23.4477C14.6776 23.4177 14.6065 23.3889 14.5347 23.3605H15.9475C16.1776 23.3605 16.3643 23.1094 16.3643 22.7991C16.3643 22.4889 16.1776 22.2377 15.9475 22.2377H15.5267C15.5527 22.1749 15.5816 22.1038 15.6127 22.0237C16.0106 21.7887 16.7109 21.2879 17.4057 20.368L17.4112 20.3609C17.4639 20.2921 17.5156 20.2208 17.5664 20.1472L17.5766 20.1326C17.6271 20.0604 17.6777 19.9859 17.7274 19.9081L17.7408 19.8875C17.7645 19.8501 17.7882 19.8126 17.8119 19.7752C17.8119 19.7752 17.8119 19.7722 17.8147 19.7704C17.8391 19.7329 17.8632 19.6918 17.8873 19.6517L17.9027 19.6259C17.9232 19.5915 17.9441 19.5563 17.9643 19.5207C17.9682 19.5144 17.9722 19.508 17.9757 19.5013C17.999 19.4609 18.0223 19.4197 18.0452 19.3781L18.061 19.3493C18.0799 19.3149 18.0985 19.2801 18.117 19.2449C18.1226 19.2352 18.1281 19.2251 18.1332 19.215C18.1553 19.1727 18.1774 19.13 18.1995 19.0866L18.2149 19.0563C18.2323 19.0211 18.2501 18.9852 18.2674 18.9493L18.2864 18.9118C18.3077 18.8677 18.3286 18.8228 18.3495 18.7775L18.3626 18.7487C18.3799 18.7112 18.3969 18.6738 18.4139 18.6364L18.434 18.5915C18.4537 18.5462 18.4735 18.5005 18.4924 18.4545C18.496 18.4463 18.4995 18.4377 18.5027 18.4294C18.5205 18.3871 18.5378 18.3441 18.5552 18.3007L18.5749 18.2513C18.5911 18.2101 18.6073 18.1686 18.6231 18.1271L18.6349 18.0956C18.6535 18.0462 18.6716 17.9957 18.6898 17.9459L18.7088 17.8928C18.723 17.8531 18.7368 17.8127 18.7506 17.7723C18.7557 17.7573 18.7609 17.7423 18.7656 17.7274C18.783 17.6757 18.8003 17.6229 18.8173 17.5702C18.8228 17.5518 18.8288 17.5328 18.8343 17.5155L18.8738 17.3924C18.8789 17.3744 18.8844 17.355 18.8896 17.3389C18.9057 17.2846 18.9219 17.2292 18.9373 17.1735C18.9424 17.1559 18.9472 17.1379 18.9519 17.12C18.9638 17.0769 18.9756 17.0339 18.9871 16.9901C18.9922 16.9703 18.9973 16.9504 19.0028 16.9306C19.0175 16.873 19.0321 16.815 19.0463 16.7562L19.0581 16.7072C19.0692 16.6604 19.0802 16.6132 19.0909 16.5657L19.1051 16.5021C19.1185 16.4411 19.1319 16.3801 19.1446 16.318C19.1473 16.306 19.1497 16.2936 19.1521 16.2805C19.1631 16.227 19.1738 16.1728 19.184 16.1185C19.1884 16.0964 19.1923 16.0743 19.1967 16.0522C19.2069 15.9965 19.2168 15.94 19.2267 15.8842C19.2286 15.8722 19.231 15.8606 19.233 15.849C19.244 15.7832 19.2548 15.7168 19.2654 15.6499C19.2689 15.6275 19.2725 15.605 19.2756 15.5822C19.2839 15.5279 19.2918 15.4733 19.2997 15.4179L19.3068 15.367C19.3163 15.2981 19.3254 15.2289 19.334 15.1585C19.3368 15.1365 19.3392 15.1144 19.3419 15.0919C19.3488 15.036 19.3551 14.9799 19.3609 14.9235C19.3633 14.9033 19.3656 14.8835 19.3676 14.8633C19.3752 14.7909 19.3823 14.7179 19.3889 14.6443C19.3889 14.6238 19.3925 14.6032 19.394 14.5822C19.3992 14.5231 19.4043 14.4636 19.4086 14.4037C19.4086 14.3816 19.4122 14.3595 19.4138 14.3375C19.4193 14.2611 19.4244 14.1843 19.4292 14.1069C19.4292 14.0893 19.4292 14.0695 19.4319 14.0538C19.4355 13.9894 19.439 13.9247 19.4418 13.8596C19.4418 13.836 19.4418 13.8124 19.445 13.7888C19.4481 13.7084 19.4513 13.6275 19.4537 13.5456C19.4537 13.5343 19.4537 13.5227 19.4537 13.5111C19.4558 13.4383 19.4573 13.3647 19.4584 13.2903C19.4584 13.266 19.4584 13.2417 19.4584 13.2173C19.4584 13.1375 19.4584 13.0572 19.4584 12.9763V12.9576C19.4584 12.8715 19.4584 12.7843 19.4584 12.6957V12.6208C19.4584 12.546 19.4552 12.4674 19.4533 12.3895V12.3472C19.4505 12.2574 19.4469 12.1665 19.4434 12.0752C19.4434 12.0516 19.441 12.0276 19.4402 12.004C19.4368 11.9272 19.4329 11.8499 19.4284 11.772C19.4284 11.7529 19.4284 11.7346 19.4252 11.714C19.4197 11.6204 19.4136 11.5261 19.4071 11.4311L19.4023 11.3648C19.3964 11.2855 19.3905 11.2058 19.3838 11.1253C19.3838 11.1021 19.3802 11.0789 19.3783 11.0557C19.37 10.9584 19.3609 10.86 19.3514 10.7612C19.3514 10.7425 19.3475 10.7238 19.3459 10.7047C19.3376 10.6205 19.3285 10.5355 19.3194 10.4498C19.3167 10.424 19.3139 10.3985 19.3108 10.3727C19.2997 10.2709 19.2879 10.1688 19.2752 10.0651C19.2752 10.0524 19.2717 10.0396 19.2701 10.0277C19.2588 9.93486 19.2468 9.84155 19.2342 9.74774C19.2302 9.72004 19.2267 9.69235 19.2227 9.66466C19.208 9.55837 19.1929 9.45121 19.1773 9.34318C17.5983 -1.31304 6.40876 0.416341 6.40876 0.416341L6.76719 2.70597L0 9.48352L0.295667 12.1006L2.85917 13.5976C2.97345 13.3222 3.12017 13.0599 3.29655 12.8158C4.95055 11.0071 8.15947 9.58718 9.07805 9.29265C9.26201 9.2339 9.36662 9.20433 9.36662 9.20433C4.97266 14.5957 5.47241 20.7722 5.66821 22.2445C5.46452 22.2819 5.30701 22.5151 5.30701 22.7995C5.30701 23.1094 5.49373 23.3609 5.72387 23.3609H7.13668C4.78699 24.2933 2.92185 26.0692 1.94848 28.3009C1.94734 28.3039 1.94602 28.3069 1.94454 28.3098C1.87269 28.4755 1.80585 28.6435 1.74401 28.814C1.74411 28.8157 1.74411 28.8174 1.74401 28.8192C1.72743 28.8656 1.71124 28.912 1.69545 28.9588C1.68953 28.9756 1.68361 28.9925 1.67808 29.0097C1.66387 29.0516 1.65071 29.0939 1.63861 29.1366C1.6315 29.1583 1.62479 29.1803 1.61808 29.202C1.60545 29.2421 1.59321 29.2825 1.58137 29.3229L1.56005 29.3978C1.549 29.4352 1.53795 29.4752 1.52768 29.5142C1.52018 29.5419 1.51308 29.5692 1.50597 29.5969C1.4965 29.6343 1.48663 29.6717 1.47755 29.7091C1.46847 29.7466 1.45978 29.784 1.4511 29.8237C1.44241 29.8633 1.43136 29.9097 1.42189 29.9532H0.85858C0.750258 29.9509 0.642551 29.9692 0.541778 30.0069C0.441006 30.0446 0.3492 30.1011 0.271747 30.1729C0.194294 30.2447 0.13275 30.3305 0.0907365 30.4252C0.0487226 30.5199 0.0270812 30.6216 0.0270812 30.7243C0.0270812 30.827 0.0487226 30.9287 0.0907365 31.0234C0.13275 31.1181 0.194294 31.2038 0.271747 31.2757C0.3492 31.3475 0.441006 31.4039 0.541778 31.4417C0.642551 31.4794 0.750258 31.4977 0.85858 31.4954H20.8234C20.9318 31.4977 21.0395 31.4794 21.1402 31.4417C21.241 31.4039 21.3328 31.3475 21.4103 31.2757C21.4877 31.2038 21.5493 31.1181 21.5913 31.0234C21.6333 30.9287 21.6549 30.827 21.6549 30.7243C21.6549 30.6216 21.6333 30.5199 21.5913 30.4252C21.5493 30.3305 21.4877 30.2447 21.4103 30.1729C21.3328 30.1011 21.241 30.0446 21.1402 30.0069C21.0395 29.9692 20.9318 29.9509 20.8234 29.9532L20.8163 29.9464Z" fill="#595653"/>
</svg>
